<?xml version="1.0" standalone="no"?>
<!DOCTYPE svg PUBLIC "-//W3C//DTD SVG 20010904//EN"
 "http://www.w3.org/TR/2001/REC-SVG-20010904/DTD/svg10.dtd">
<svg version="1.0" xmlns="http://www.w3.org/2000/svg"
 width="1067.000000pt" height="1067.000000pt" viewBox="0 0 1067.000000 1067.000000"
 preserveAspectRatio="xMidYMid meet">

<g transform="translate(0.000000,1067.000000) scale(0.100000,-0.100000)"
fill="#000000" stroke="none">
<path d="M0 5335 l0 -5335 5335 0 5335 0 0 5335 0 5335 -5335 0 -5335 0 0
-5335z m2512 2164 c29 -16 48 -70 48 -142 0 -78 -19 -129 -55 -145 -32 -15
-214 -16 -251 -2 -38 15 -51 37 -59 98 -10 78 3 151 31 179 22 22 31 23 144
23 68 0 130 -5 142 -11z m7104 -44 c49 -9 104 -20 123 -26 l34 -11 -7 -101
c-4 -55 -12 -109 -17 -119 -10 -18 -24 -19 -262 -16 -300 4 -321 1 -337 -47
-15 -47 -4 -91 28 -113 15 -11 72 -36 127 -56 55 -21 109 -41 120 -46 11 -4
40 -16 65 -25 147 -55 241 -123 285 -210 31 -58 37 -105 32 -231 -6 -163 -16
-196 -81 -260 -56 -57 -123 -87 -228 -104 -79 -12 -349 -13 -448 0 -126 16
-249 43 -253 54 -5 13 10 200 18 235 5 20 10 22 38 17 18 -3 133 -8 257 -12
294 -8 339 3 340 84 0 34 -15 72 -34 84 -9 6 -196 82 -291 117 -78 30 -205
102 -242 138 -24 24 -56 69 -71 101 -25 52 -27 67 -27 182 0 71 5 143 12 166
38 122 141 191 320 214 95 12 392 3 499 -15z m-8014 1 c107 -20 208 -68 262
-126 99 -106 136 -257 136 -560 0 -310 -42 -456 -163 -566 -81 -74 -183 -106
-372 -119 -93 -6 -557 10 -601 21 l-24 6 0 663 c0 520 3 666 13 672 34 22 634
29 749 9z m6236 -665 c2 -533 0 -676 -10 -683 -16 -10 -249 -10 -265 0 -6 4
-17 35 -23 70 -7 34 -15 62 -17 62 -3 0 -28 -21 -57 -46 -90 -83 -202 -120
-331 -112 -121 8 -204 57 -251 150 -52 102 -74 211 -74 367 0 237 52 387 156
451 108 67 345 65 479 -4 16 -8 32 -13 35 -10 3 3 3 97 1 209 -1 112 0 209 4
215 4 7 62 10 178 8 l172 -3 3 -674z m747 69 c0 -582 0 -585 -22 -626 -71
-133 -252 -184 -489 -139 -108 21 -109 23 -89 131 9 49 18 96 21 105 3 12 23
18 82 23 84 7 122 26 133 67 4 13 7 250 8 527 l1 502 178 -2 177 -3 0 -585z
m-5175 229 c69 -6 143 -16 165 -23 34 -10 40 -15 37 -36 -2 -14 -6 -59 -10
-100 l-7 -75 -259 -3 c-177 -1 -264 -6 -273 -14 -8 -6 -13 -23 -11 -37 4 -31
18 -37 235 -91 302 -76 362 -128 363 -316 0 -118 -18 -172 -75 -222 -53 -47
-118 -69 -244 -83 -148 -17 -569 8 -597 35 -8 8 -9 36 -3 96 5 47 11 90 13 97
4 9 77 13 269 15 283 3 297 6 297 54 0 34 -7 37 -285 109 -147 38 -186 56
-240 110 -60 60 -75 101 -75 212 0 160 64 233 235 269 77 16 305 17 465 3z
m1061 0 c86 -15 178 -41 189 -53 8 -10 -5 -118 -24 -201 -5 -19 -13 -20 -189
-20 -193 0 -219 -5 -260 -49 -27 -30 -32 -61 -32 -186 1 -132 14 -168 75 -197
45 -22 183 -28 310 -15 122 14 115 22 136 -159 l6 -57 -58 -21 c-134 -51 -427
-65 -559 -28 -210 59 -285 189 -285 491 1 81 6 164 14 196 41 171 127 257 296
294 74 16 296 19 381 5z m1011 0 c194 -40 278 -114 324 -285 21 -76 23 -335 4
-414 -39 -163 -134 -256 -300 -291 -86 -18 -325 -18 -410 0 -129 28 -220 92
-264 184 -66 140 -75 412 -19 567 65 178 198 247 475 249 75 1 161 -4 190 -10z
m1258 -1 c0 -7 -7 -76 -15 -153 -8 -77 -15 -143 -15 -146 0 -3 -46 -9 -102
-12 -112 -7 -249 -33 -260 -51 -4 -6 -8 -147 -8 -312 0 -266 -2 -303 -16 -308
-23 -9 -307 -7 -322 2 -10 7 -12 110 -10 483 l3 474 136 3 136 3 13 -58 c7
-32 16 -62 20 -66 4 -5 32 10 61 32 60 45 135 85 201 106 57 17 178 19 178 3z
m-4182 -500 l2 -477 -32 -6 c-18 -3 -98 -5 -178 -3 l-145 3 -3 483 -2 482 177
-2 178 -3 3 -477z m2587 -2123 l0 -680 -140 0 -140 0 -11 55 c-6 31 -13 61
-15 68 -2 7 -25 -8 -56 -37 -97 -88 -174 -114 -323 -109 -120 4 -159 18 -220
80 -120 122 -160 501 -77 733 30 84 101 154 182 180 109 36 290 22 401 -31 18
-9 37 -13 42 -10 5 3 7 96 4 212 -4 169 -2 208 9 215 8 5 88 8 179 6 l165 -2
0 -680z m1723 673 c9 -9 12 -141 12 -534 0 -611 -8 -566 106 -574 l69 -5 18
-108 c13 -79 15 -112 7 -122 -28 -34 -295 -52 -375 -25 -68 22 -121 65 -149
122 l-26 52 0 596 c0 328 3 600 7 603 12 13 318 8 331 -5z m-5177 -18 c59 -16
84 -54 107 -165 6 -27 32 -144 57 -260 25 -115 50 -230 55 -255 5 -25 14 -66
20 -92 5 -26 10 -63 10 -82 0 -19 5 -38 10 -41 13 -8 28 32 35 97 6 49 33 187
55 283 5 22 28 126 50 230 47 223 53 238 94 268 30 21 40 22 247 22 235 0 258
-5 284 -55 9 -18 17 -104 25 -271 12 -289 40 -973 40 -1000 0 -18 -10 -19
-164 -19 l-164 0 -6 63 c-3 34 -13 271 -22 527 -16 439 -21 489 -45 474 -6 -4
-32 -108 -78 -314 -12 -52 -26 -113 -31 -135 -5 -22 -16 -69 -24 -105 -8 -36
-24 -106 -36 -156 -22 -94 -42 -128 -87 -145 -13 -5 -88 -9 -166 -9 -160 0
-201 12 -226 65 -12 25 -50 177 -81 325 -5 25 -22 101 -38 170 -16 69 -38 162
-48 207 -20 92 -27 109 -42 99 -15 -9 -20 -102 -32 -516 -5 -201 -13 -407 -16
-457 l-6 -93 -165 0 -166 0 7 158 c4 86 12 263 17 392 6 129 14 339 18 465 8
280 18 309 106 328 41 9 371 7 406 -3z m1929 -354 c277 -46 370 -173 370 -506
-1 -140 -12 -212 -47 -292 -44 -99 -136 -166 -266 -194 -84 -18 -344 -18 -421
1 -165 39 -252 126 -292 295 -16 68 -18 280 -3 369 22 130 89 230 188 281 105
53 307 73 471 46z m4245 -2 c152 -26 228 -71 280 -166 28 -49 30 -60 30 -158
0 -140 -25 -187 -125 -233 -40 -18 -71 -21 -270 -26 -217 -6 -225 -7 -228 -26
-4 -30 38 -87 78 -108 35 -18 87 -18 455 -4 l39 2 13 -70 c20 -117 18 -144
-14 -156 -99 -40 -232 -59 -408 -58 -172 0 -237 10 -327 51 -147 68 -217 216
-218 455 0 175 40 310 116 387 102 104 346 151 579 110z m1112 0 c192 -18 228
-25 228 -45 0 -8 -4 -53 -9 -101 l-8 -88 -246 0 c-269 0 -297 -5 -297 -50 0
-33 23 -43 192 -86 266 -67 317 -90 368 -163 28 -39 30 -50 33 -143 5 -132 -9
-179 -68 -239 -25 -25 -57 -49 -70 -52 -139 -34 -164 -36 -340 -37 -189 0
-429 21 -440 39 -9 16 11 195 24 203 6 4 129 8 272 8 281 0 289 1 282 52 -4
29 -27 40 -173 78 -291 76 -340 99 -392 187 -24 41 -28 60 -31 145 -4 90 -2
103 22 152 67 138 253 178 653 140z m-3283 -30 c3 -9 6 -156 6 -327 0 -305 0
-311 22 -334 26 -28 95 -31 170 -9 97 30 88 -7 88 362 l0 324 173 -2 172 -3 3
-482 2 -483 -139 0 -139 0 -6 30 c-3 17 -9 43 -12 60 -8 44 -19 45 -67 7 -45
-37 -136 -86 -202 -108 -23 -8 -83 -14 -141 -14 -87 0 -107 4 -148 25 -58 29
-102 77 -115 127 -12 42 -16 825 -4 836 3 4 79 7 169 7 138 0 163 -2 168 -16z"/>
<path d="M1218 7194 c-5 -4 -8 -193 -8 -420 l0 -412 66 -7 c150 -17 260 16
297 88 43 84 60 354 33 533 -16 109 -37 156 -84 192 -34 26 -42 27 -166 30
-72 2 -134 0 -138 -4z"/>
<path d="M7243 6851 c-33 -15 -51 -59 -64 -159 -10 -69 -10 -109 -1 -172 14
-98 37 -136 88 -146 52 -10 140 2 177 23 l32 19 3 202 2 201 -25 17 c-29 19
-178 29 -212 15z"/>
<path d="M5209 6827 c-45 -38 -54 -78 -54 -242 0 -136 2 -154 23 -193 27 -50
52 -62 130 -62 72 0 100 15 126 65 18 35 20 58 21 190 0 227 -22 265 -152 265
-56 0 -73 -4 -94 -23z"/>
<path d="M4570 4527 c-21 -7 -42 -25 -55 -47 -18 -31 -20 -52 -20 -200 0 -186
7 -208 74 -231 59 -20 188 7 213 45 4 6 8 100 8 209 l0 198 -32 13 c-50 21
-148 28 -188 13z"/>
<path d="M3392 4513 c-59 -29 -67 -57 -67 -248 0 -141 3 -175 17 -201 28 -52
44 -59 128 -59 84 0 100 7 128 59 26 47 25 357 -1 404 -32 58 -133 81 -205 45z"/>
<path d="M7620 4532 c-14 -4 -34 -22 -46 -39 -21 -31 -39 -117 -28 -134 8 -13
215 -11 252 2 25 8 33 18 38 45 8 44 -2 98 -22 115 -17 14 -156 22 -194 11z"/>
</g>
</svg>
